<svg
  xmlns="http://www.w3.org/2000/svg"
  width="180"
  height="53"
  viewBox="0 0 180 53"
>
  <g fill="none" fillRule="evenodd">
    <path
      fill="#0B0B0A"
      d="M179.648 47.39c0 2.903-2.31 5.255-5.167 5.255H5.374C2.518 52.645.2 50.293.2 47.39V5.483C.2 2.581 2.518.221 5.374.221h169.105c2.86 0 5.168 2.36 5.168 5.262V47.39h.001"
    />
    <path
      fill="#FFFFFE"
      d="M39.606 26.145c-.039-4.422 3.557-6.574 3.722-6.675-2.037-3.023-5.193-3.436-6.303-3.468-2.65-.284-5.222 1.615-6.573 1.615-1.377 0-3.458-1.587-5.698-1.54-2.883.045-5.583 1.745-7.063 4.385-3.054 5.382-.776 13.292 2.15 17.643 1.464 2.13 3.174 4.51 5.411 4.426 2.19-.093 3.009-1.423 5.653-1.423 2.619 0 3.387 1.423 5.67 1.37 2.35-.04 3.83-2.14 5.243-4.29 1.692-2.444 2.371-4.85 2.398-4.973-.055-.018-4.565-1.77-4.61-7.07M35.294 13.14c1.176-1.5 1.982-3.54 1.758-5.61-1.705.077-3.837 1.2-5.063 2.667-1.087 1.293-2.057 3.411-1.806 5.403 1.915.146 3.881-.983 5.11-2.46M66.06 34.612l-1.517-4.767c-.16-.488-.46-1.635-.905-3.441h-.053a134.5 134.5 0 0 1-.852 3.441l-1.489 4.767h4.816zm5.243 7.613h-3.061l-1.677-5.363H60.74l-1.598 5.363h-2.98l5.774-18.26h3.567l5.8 18.26zM83.224 35.587c0-1.281-.283-2.338-.852-3.17-.621-.865-1.454-1.3-2.501-1.3-.71 0-1.354.242-1.93.719-.576.479-.953 1.106-1.13 1.884-.089.36-.133.658-.133.892v2.195c0 .958.288 1.766.865 2.424.577.66 1.326.99 2.248.99 1.082 0 1.926-.426 2.529-1.274.602-.849.904-1.969.904-3.36zm2.927-.107c0 2.24-.594 4.01-1.783 5.309-1.065 1.156-2.385 1.734-3.965 1.734-1.702 0-2.926-.623-3.671-1.87h-.054v6.936h-2.874V33.393c0-1.407-.036-2.852-.106-4.334h2.527l.16 2.087h.054c.957-1.573 2.413-2.357 4.363-2.357 1.527 0 2.8.613 3.82 1.841 1.02 1.23 1.53 2.846 1.53 4.85zM98.1 35.587c0-1.281-.285-2.338-.852-3.17-.622-.865-1.454-1.3-2.502-1.3-.71 0-1.353.242-1.93.719-.575.479-.951 1.106-1.13 1.884a3.96 3.96 0 0 0-.133.892v2.195c0 .958.289 1.766.863 2.424.577.66 1.328.99 2.25.99 1.083 0 1.925-.426 2.528-1.274.604-.849.906-1.969.906-3.36zm2.927-.107c0 2.24-.594 4.01-1.784 5.309-1.064 1.156-2.386 1.734-3.964 1.734-1.704 0-2.928-.623-3.672-1.87h-.054v6.936H88.68V33.393c0-1.407-.037-2.852-.107-4.334h2.529l.159 2.087h.054c.957-1.573 2.41-2.357 4.363-2.357 1.524 0 2.799.613 3.82 1.841 1.018 1.23 1.529 2.846 1.529 4.85zM117.659 37.106c0 1.552-.53 2.815-1.593 3.791-1.169 1.067-2.796 1.598-4.886 1.598-1.929 0-3.477-.378-4.649-1.137l.666-2.438a7.771 7.771 0 0 0 4.154 1.165c1.082 0 1.925-.249 2.53-.747.604-.496.903-1.162.903-1.995 0-.74-.247-1.365-.745-1.871-.495-.506-1.321-.977-2.474-1.412-3.14-1.192-4.71-2.939-4.71-5.237 0-1.5.551-2.73 1.651-3.69 1.097-.959 2.56-1.437 4.391-1.437 1.632 0 2.988.288 4.07.865l-.72 2.385c-1.01-.56-2.153-.84-3.432-.84-1.011 0-1.8.253-2.367.759a2.186 2.186 0 0 0-.718 1.653c0 .722.273 1.319.825 1.787.478.435 1.347.904 2.608 1.41 1.543.633 2.676 1.372 3.406 2.22.727.85 1.09 1.907 1.09 3.171M127.16 31.254h-3.168v6.393c0 1.626.558 2.438 1.677 2.438.513 0 .94-.046 1.278-.135l.078 2.222c-.566.215-1.31.323-2.235.323-1.135 0-2.022-.352-2.662-1.055-.636-.705-.958-1.888-.958-3.55v-6.636h-1.887V29.06h1.887v-2.41l2.822-.868v3.278h3.168v2.195M138.469 35.628c0-1.213-.256-2.254-.772-3.124-.603-1.05-1.464-1.575-2.58-1.575-1.155 0-2.033.524-2.635 1.575-.516.87-.771 1.928-.771 3.18 0 1.213.255 2.255.771 3.123.621 1.05 1.49 1.576 2.61 1.576 1.096 0 1.958-.534 2.579-1.603.531-.886.798-1.939.798-3.152zm2.981-.094c0 2.023-.567 3.685-1.702 4.984-1.19 1.337-2.77 2.005-4.739 2.005-1.898 0-3.408-.64-4.535-1.924-1.127-1.281-1.69-2.899-1.69-4.849 0-2.04.58-3.711 1.742-5.01 1.16-1.301 2.727-1.951 4.696-1.951 1.9 0 3.425.64 4.579 1.923 1.1 1.246 1.65 2.853 1.65 4.822zM150.79 31.632a4.896 4.896 0 0 0-.905-.08c-1.011 0-1.793.388-2.343 1.165-.48.686-.718 1.553-.718 2.6v6.908h-2.872l.025-9.02c0-1.519-.036-2.9-.107-4.146h2.504l.105 2.519h.078c.303-.866.783-1.563 1.438-2.084.639-.47 1.332-.705 2.077-.705.266 0 .506.019.718.053v2.79M160.902 34.26c.019-.867-.169-1.615-.558-2.248-.498-.813-1.262-1.219-2.29-1.219-.94 0-1.704.397-2.287 1.193-.48.632-.765 1.39-.85 2.274h5.985zm2.74.76c0 .523-.034.965-.105 1.326h-8.62c.033 1.3.45 2.295 1.248 2.981.727.614 1.668.921 2.82.921 1.276 0 2.44-.209 3.488-.624l.45 2.032c-1.223.542-2.668.813-4.336.813-2.005 0-3.58-.6-4.725-1.802-1.141-1.201-1.716-2.813-1.716-4.836 0-1.986.531-3.64 1.599-4.957 1.116-1.409 2.624-2.113 4.522-2.113 1.864 0 3.275.704 4.233 2.113.76 1.12 1.142 2.503 1.142 4.145zM63.62 12.773c0-1.047-.272-1.85-.818-2.41-.544-.558-1.34-.838-2.385-.838-.445 0-.825.032-1.138.093v6.708c.174.028.492.04.954.04 1.081 0 1.915-.306 2.504-.918.588-.612.883-1.504.883-2.675zm1.49-.04c0 1.615-.475 2.83-1.425 3.647-.882.753-2.131 1.13-3.752 1.13-.802 0-1.491-.035-2.067-.105V8.58c.751-.124 1.56-.186 2.433-.186 1.542 0 2.707.342 3.491 1.025.879.771 1.32 1.876 1.32 3.314zM71.541 14.19c0-.595-.126-1.107-.38-1.534-.295-.517-.718-.775-1.267-.775-.567 0-.998.258-1.295.775-.252.427-.379.947-.379 1.56 0 .597.127 1.109.379 1.537.306.514.732.772 1.282.772.54 0 .962-.262 1.268-.786.262-.436.392-.952.392-1.549zm1.465-.047c0 .995-.279 1.81-.837 2.45-.585.657-1.36.985-2.327.985-.933 0-1.676-.315-2.23-.946-.552-.63-.83-1.424-.83-2.382 0-1.003.285-1.823.856-2.462.571-.64 1.34-.958 2.307-.958.934 0 1.682.315 2.25.945.539.612.811 1.402.811 2.368zM83.595 10.963l-1.988 6.468h-1.293l-.825-2.809a21.237 21.237 0 0 1-.51-2.09h-.025c-.123.711-.292 1.408-.51 2.09l-.877 2.809H76.26l-1.87-6.468h1.452l.718 3.073c.174.729.319 1.42.433 2.078h.024c.105-.541.28-1.23.525-2.064l.901-3.087h1.15l.864 3.021c.209.737.379 1.446.51 2.13h.038c.096-.666.24-1.375.433-2.13l.771-3.021h1.386M90.917 17.43h-1.412v-3.704c0-1.141-.426-1.712-1.28-1.712-.42 0-.76.158-1.021.472a1.679 1.679 0 0 0-.392 1.109v3.836h-1.413v-4.619c0-.568-.017-1.184-.05-1.85h1.24l.066 1.012h.04c.164-.314.41-.575.731-.78a2.344 2.344 0 0 1 1.28-.364c.594 0 1.087.195 1.48.586.487.479.731 1.192.731 2.141v3.874M93.401 17.43h1.411V7.996h-1.41zM101.662 14.19c0-.595-.127-1.107-.379-1.534-.295-.517-.72-.775-1.267-.775-.569 0-1 .258-1.295.775-.252.427-.379.947-.379 1.56 0 .597.127 1.109.379 1.537.306.514.732.772 1.282.772.54 0 .96-.262 1.267-.786.262-.436.392-.952.392-1.549zm1.466-.047c0 .995-.279 1.81-.837 2.45-.585.657-1.361.985-2.327.985-.934 0-1.677-.315-2.23-.946-.552-.63-.829-1.424-.829-2.382 0-1.003.285-1.823.855-2.462.571-.64 1.341-.958 2.306-.958.935 0 1.682.315 2.25.945.541.612.812 1.402.812 2.368zM108.498 15.208v-.997c-1.558-.028-2.337.407-2.337 1.303 0 .338.089.59.27.759a.978.978 0 0 0 .69.252c.31 0 .6-.099.863-.299a1.22 1.22 0 0 0 .514-1.018zm1.466 2.223h-1.268l-.106-.745h-.04c-.434.594-1.052.892-1.855.892-.6 0-1.084-.195-1.45-.586-.332-.356-.498-.795-.498-1.317 0-.79.323-1.393.974-1.812.65-.415 1.564-.62 2.74-.611v-.12c0-.852-.439-1.277-1.319-1.277-.627 0-1.18.159-1.655.479l-.287-.946c.589-.372 1.318-.558 2.18-.558 1.66 0 2.493.892 2.493 2.675v2.382c0 .648.03 1.162.091 1.544zM116.527 14.703v-1.078c0-.187-.014-.338-.04-.453a1.643 1.643 0 0 0-.51-.871 1.368 1.368 0 0 0-.945-.353c-.527 0-.94.213-1.243.638-.3.427-.453.971-.453 1.637 0 .64.145 1.158.434 1.557.306.426.719.64 1.235.64.464 0 .834-.179 1.116-.533.272-.328.406-.723.406-1.184zm1.463 2.728h-1.253l-.065-1.039h-.04c-.4.79-1.081 1.186-2.04 1.186-.766 0-1.402-.306-1.908-.918-.505-.614-.759-1.407-.759-2.384 0-1.046.274-1.894.824-2.54.532-.604 1.185-.906 1.962-.906.852 0 1.45.292 1.79.878h.026V7.995h1.414v7.693c0 .63.016 1.21.05 1.743zM128.607 14.19c0-.595-.127-1.107-.379-1.534-.298-.517-.718-.775-1.27-.775-.564 0-.997.258-1.295.775-.252.427-.378.947-.378 1.56 0 .597.126 1.109.378 1.537.306.514.732.772 1.284.772.539 0 .963-.262 1.268-.786.26-.436.392-.952.392-1.549zm1.464-.047c0 .995-.28 1.81-.837 2.45-.585.657-1.359.985-2.328.985-.931 0-1.674-.315-2.23-.946-.552-.63-.828-1.424-.828-2.382 0-1.003.284-1.823.856-2.462.57-.64 1.34-.958 2.309-.958.93 0 1.682.315 2.246.945.54.612.812 1.402.812 2.368zM137.666 17.43h-1.412v-3.704c0-1.141-.425-1.712-1.281-1.712-.42 0-.76.158-1.02.472-.26.314-.391.683-.391 1.109v3.836h-1.414v-4.619c0-.568-.016-1.184-.05-1.85h1.24l.066 1.012h.039c.166-.314.411-.575.732-.78a2.349 2.349 0 0 1 1.282-.364c.593 0 1.085.195 1.477.586.489.479.732 1.192.732 2.141v3.874M147.172 12.04h-1.557v3.142c0 .799.276 1.198.825 1.198.252 0 .462-.022.628-.067l.038 1.092c-.28.105-.646.159-1.099.159-.558 0-.992-.173-1.305-.519-.316-.347-.471-.927-.471-1.744V12.04h-.93v-1.077h.93V9.777l1.384-.425v1.61h1.557v1.078M154.65 17.43h-1.413v-3.676c0-1.16-.428-1.74-1.28-1.74-.656 0-1.103.336-1.348 1.01a1.841 1.841 0 0 0-.065.517v3.89h-1.411V7.995h1.41v3.898h.026c.445-.71 1.083-1.063 1.909-1.063.585 0 1.069.195 1.453.586.48.487.718 1.211.718 2.169v3.846M161.015 13.518c.01-.426-.082-.795-.274-1.105-.245-.4-.618-.598-1.124-.598-.46 0-.837.195-1.124.586-.234.31-.373.683-.419 1.117h2.94zm1.348.373c0 .258-.02.475-.053.652h-4.236c.019.639.221 1.126.613 1.464.359.301.822.452 1.388.452a4.61 4.61 0 0 0 1.714-.306l.22.998c-.602.266-1.31.4-2.132.4-.984 0-1.757-.294-2.318-.886-.563-.59-.842-1.381-.842-2.375 0-.975.26-1.788.784-2.435.547-.693 1.287-1.039 2.221-1.039.914 0 1.608.346 2.077 1.039.376.55.564 1.23.564 2.036z"
    />
  </g>
</svg>