<?xml version="1.0" encoding="UTF-8"?>
<svg width="180px" height="53px" viewBox="0 0 180 53" version="1.1" xmlns="http://www.w3.org/2000/svg" xmlns:xlink="http://www.w3.org/1999/xlink">
    <!-- Generator: Sketch 51.2 (57519) - http://www.bohemiancoding.com/sketch -->
    <title>google-play-badge</title>
    <desc>Created with Sketch.</desc>
    <defs>
        <linearGradient x1="90.7692308%" y1="4.84%" x2="-38.3307692%" y2="71.968%" id="linearGradient-1">
            <stop stop-color="#00A0FF" offset="0%"></stop>
            <stop stop-color="#00A1FF" offset="0.7%"></stop>
            <stop stop-color="#00BEFF" offset="26%"></stop>
            <stop stop-color="#00D2FF" offset="51.2%"></stop>
            <stop stop-color="#00DFFF" offset="76%"></stop>
            <stop stop-color="#00E3FF" offset="100%"></stop>
        </linearGradient>
        <linearGradient x1="107.724138%" y1="49.4235294%" x2="-130.669951%" y2="49.4235294%" id="linearGradient-2">
            <stop stop-color="#FFE000" offset="0%"></stop>
            <stop stop-color="#FFBD00" offset="40.9%"></stop>
            <stop stop-color="#FFA500" offset="77.5%"></stop>
            <stop stop-color="#FF9C00" offset="100%"></stop>
        </linearGradient>
        <linearGradient x1="86.3892216%" y1="17.81427%" x2="-49.8862275%" y2="194.389687%" id="linearGradient-3">
            <stop stop-color="#FF3A44" offset="0%"></stop>
            <stop stop-color="#C31162" offset="100%"></stop>
        </linearGradient>
        <linearGradient x1="-18.5808383%" y1="-54.5282125%" x2="42.2754491%" y2="24.6924404%" id="linearGradient-4">
            <stop stop-color="#32A071" offset="0%"></stop>
            <stop stop-color="#2DA771" offset="6.9%"></stop>
            <stop stop-color="#15CF74" offset="47.6%"></stop>
            <stop stop-color="#06E775" offset="80.1%"></stop>
            <stop stop-color="#00F076" offset="100%"></stop>
        </linearGradient>
    </defs>
    <g id="Final-Design-+-Copy" stroke="none" stroke-width="1" fill="none" fill-rule="evenodd">
        <g id="[WEB]-Logged-Out-Landing" transform="translate(-520.000000, -4612.000000)" fill-rule="nonzero">
            <g id="Group-3" transform="translate(324.000000, 4612.000000)">
                <g id="google-play-badge" transform="translate(196.000000, 0.000000)">
                    <path d="M173.333333,53 L6.66666667,53 C2.93333333,53 0,50.085 0,46.375 L0,6.625 C0,2.915 2.93333333,0 6.66666667,0 L173.333333,0 C177.066667,0 180,2.915 180,6.625 L180,46.375 C180,50.085 177.066667,53 173.333333,53 Z" id="Shape" fill="#000000"></path>
                    <path d="M173.333333,1.06 C176.4,1.06 178.933333,3.5775 178.933333,6.625 L178.933333,46.375 C178.933333,49.4225 176.4,51.94 173.333333,51.94 L6.66666667,51.94 C3.6,51.94 1.06666667,49.4225 1.06666667,46.375 L1.06666667,6.625 C1.06666667,3.5775 3.6,1.06 6.66666667,1.06 L173.333333,1.06 Z M173.333333,0 L6.66666667,0 C2.93333333,0 0,3.0475 0,6.625 L0,46.375 C0,50.085 2.93333333,53 6.66666667,53 L173.333333,53 C177.066667,53 180,50.085 180,46.375 L180,6.625 C180,3.0475 177.066667,0 173.333333,0 Z" id="Shape" fill="#A6A6A6"></path>
                    <path d="M63.2,13.515 C63.2,14.575 62.9333333,15.5025 62.2666667,16.165 C61.4666667,16.96 60.5333333,17.3575 59.3333333,17.3575 C58.1333333,17.3575 57.2,16.96 56.4,16.165 C55.6,15.37 55.2,14.4425 55.2,13.25 C55.2,12.0575 55.6,11.13 56.4,10.335 C57.2,9.54 58.1333333,9.1425 59.3333333,9.1425 C59.8666667,9.1425 60.4,9.275 60.9333333,9.54 C61.4666667,9.805 61.8666667,10.07 62.1333333,10.4675 L61.4666667,11.13 C60.9333333,10.4675 60.2666667,10.2025 59.3333333,10.2025 C58.5333333,10.2025 57.7333333,10.4675 57.2,11.13 C56.5333333,11.66 56.2666667,12.455 56.2666667,13.3825 C56.2666667,14.31 56.5333333,15.105 57.2,15.635 C57.8666667,16.165 58.5333333,16.5625 59.3333333,16.5625 C60.2666667,16.5625 60.9333333,16.2975 61.6,15.635 C62,15.2375 62.2666667,14.7075 62.2666667,14.045 L59.3333333,14.045 L59.3333333,12.985 L63.2,12.985 L63.2,13.515 Z M69.3333333,10.2025 L65.7333333,10.2025 L65.7333333,12.72 L69.0666667,12.72 L69.0666667,13.6475 L65.7333333,13.6475 L65.7333333,16.165 L69.3333333,16.165 L69.3333333,17.225 L64.6666667,17.225 L64.6666667,9.275 L69.3333333,9.275 L69.3333333,10.2025 Z M73.7333333,17.225 L72.6666667,17.225 L72.6666667,10.2025 L70.4,10.2025 L70.4,9.275 L76,9.275 L76,10.2025 L73.7333333,10.2025 L73.7333333,17.225 Z M79.8666667,17.225 L79.8666667,9.275 L80.9333333,9.275 L80.9333333,17.225 L79.8666667,17.225 Z M85.4666667,17.225 L84.4,17.225 L84.4,10.2025 L82.1333333,10.2025 L82.1333333,9.275 L87.6,9.275 L87.6,10.2025 L85.3333333,10.2025 L85.3333333,17.225 L85.4666667,17.225 Z M98.1333333,16.165 C97.3333333,16.96 96.4,17.3575 95.2,17.3575 C94,17.3575 93.0666667,16.96 92.2666667,16.165 C91.4666667,15.37 91.0666667,14.4425 91.0666667,13.25 C91.0666667,12.0575 91.4666667,11.13 92.2666667,10.335 C93.0666667,9.54 94,9.1425 95.2,9.1425 C96.4,9.1425 97.3333333,9.54 98.1333333,10.335 C98.9333333,11.13 99.3333333,12.0575 99.3333333,13.25 C99.3333333,14.4425 98.9333333,15.37 98.1333333,16.165 Z M93.0666667,15.5025 C93.6,16.0325 94.4,16.43 95.2,16.43 C96,16.43 96.8,16.165 97.3333333,15.5025 C97.8666667,14.9725 98.2666667,14.1775 98.2666667,13.25 C98.2666667,12.3225 98,11.5275 97.3333333,10.9975 C96.8,10.4675 96,10.07 95.2,10.07 C94.4,10.07 93.6,10.335 93.0666667,10.9975 C92.5333333,11.5275 92.1333333,12.3225 92.1333333,13.25 C92.1333333,14.1775 92.4,14.9725 93.0666667,15.5025 Z M100.8,17.225 L100.8,9.275 L102,9.275 L105.866667,15.5025 L105.866667,9.275 L106.933333,9.275 L106.933333,17.225 L105.866667,17.225 L101.733333,10.7325 L101.733333,17.225 L100.8,17.225 Z" id="Shape" stroke="#FFFFFF" stroke-width="0.5" fill="#FFFFFF"></path>
                    <path d="M90.8,28.885 C87.6,28.885 85.0666667,31.27 85.0666667,34.5825 C85.0666667,37.7625 87.6,40.28 90.8,40.28 C94,40.28 96.5333333,37.895 96.5333333,34.5825 C96.5333333,31.1375 94,28.885 90.8,28.885 Z M90.8,37.895 C89.0666667,37.895 87.6,36.4375 87.6,34.45 C87.6,32.4625 89.0666667,31.005 90.8,31.005 C92.5333333,31.005 94,32.33 94,34.45 C94,36.4375 92.5333333,37.895 90.8,37.895 Z M78.4,28.885 C75.2,28.885 72.6666667,31.27 72.6666667,34.5825 C72.6666667,37.7625 75.2,40.28 78.4,40.28 C81.6,40.28 84.1333333,37.895 84.1333333,34.5825 C84.1333333,31.1375 81.6,28.885 78.4,28.885 Z M78.4,37.895 C76.6666667,37.895 75.2,36.4375 75.2,34.45 C75.2,32.4625 76.6666667,31.005 78.4,31.005 C80.1333333,31.005 81.6,32.33 81.6,34.45 C81.6,36.4375 80.1333333,37.895 78.4,37.895 Z M63.6,30.6075 L63.6,32.9925 L69.3333333,32.9925 C69.2,34.3175 68.6666667,35.3775 68,36.04 C67.2,36.835 65.8666667,37.7625 63.6,37.7625 C60,37.7625 57.3333333,34.98 57.3333333,31.4025 C57.3333333,27.825 60.1333333,25.0425 63.6,25.0425 C65.4666667,25.0425 66.9333333,25.8375 68,26.765 L69.7333333,25.0425 C68.2666667,23.7175 66.4,22.6575 63.7333333,22.6575 C58.9333333,22.6575 54.8,26.6325 54.8,31.4025 C54.8,36.1725 58.9333333,40.1475 63.7333333,40.1475 C66.4,40.1475 68.2666667,39.3525 69.8666667,37.63 C71.4666667,36.04 72,33.7875 72,32.065 C72,31.535 72,31.005 71.8666667,30.6075 L63.6,30.6075 Z M124.133333,32.4625 C123.6,31.1375 122.266667,28.885 119.333333,28.885 C116.4,28.885 114,31.1375 114,34.5825 C114,37.7625 116.4,40.28 119.6,40.28 C122.133333,40.28 123.733333,38.69 124.266667,37.7625 L122.4,36.4375 C121.733333,37.365 120.933333,38.0275 119.6,38.0275 C118.266667,38.0275 117.466667,37.4975 116.8,36.305 L124.4,33.125 L124.133333,32.4625 Z M116.4,34.3175 C116.4,32.1975 118.133333,31.005 119.333333,31.005 C120.266667,31.005 121.2,31.535 121.466667,32.1975 L116.4,34.3175 Z M110.133333,39.75 L112.666667,39.75 L112.666667,23.1875 L110.133333,23.1875 L110.133333,39.75 Z M106.133333,30.0775 C105.466667,29.415 104.4,28.7525 103.066667,28.7525 C100.266667,28.7525 97.6,31.27 97.6,34.45 C97.6,37.63 100.133333,40.015 103.066667,40.015 C104.4,40.015 105.466667,39.3525 106,38.69 L106.133333,38.69 L106.133333,39.485 C106.133333,41.605 104.933333,42.7975 103.066667,42.7975 C101.6,42.7975 100.533333,41.7375 100.266667,40.81 L98.1333333,41.7375 C98.8,43.195 100.4,45.05 103.2,45.05 C106.133333,45.05 108.533333,43.3275 108.533333,39.22 L108.533333,29.15 L106.133333,29.15 L106.133333,30.0775 Z M103.2,37.895 C101.466667,37.895 100,36.4375 100,34.45 C100,32.4625 101.466667,31.005 103.2,31.005 C104.933333,31.005 106.266667,32.4625 106.266667,34.45 C106.266667,36.4375 104.933333,37.895 103.2,37.895 Z M135.733333,23.1875 L129.733333,23.1875 L129.733333,39.75 L132.266667,39.75 L132.266667,33.5225 L135.733333,33.5225 C138.533333,33.5225 141.2,31.535 141.2,28.355 C141.2,25.175 138.533333,23.1875 135.733333,23.1875 Z M135.866667,31.1375 L132.266667,31.1375 L132.266667,25.44 L135.866667,25.44 C137.733333,25.44 138.8,27.03 138.8,28.2225 C138.666667,29.68 137.6,31.1375 135.866667,31.1375 Z M151.2,28.7525 C149.333333,28.7525 147.466667,29.5475 146.8,31.27 L149.066667,32.1975 C149.6,31.27 150.4,31.005 151.333333,31.005 C152.666667,31.005 153.866667,31.8 154,33.125 L154,33.2575 C153.6,32.9925 152.533333,32.595 151.466667,32.595 C149.066667,32.595 146.666667,33.92 146.666667,36.305 C146.666667,38.5575 148.666667,40.015 150.8,40.015 C152.533333,40.015 153.333333,39.22 154,38.425 L154.133333,38.425 L154.133333,39.75 L156.533333,39.75 L156.533333,33.39 C156.266667,30.475 154,28.7525 151.2,28.7525 Z M150.933333,37.895 C150.133333,37.895 148.933333,37.4975 148.933333,36.4375 C148.933333,35.1125 150.4,34.715 151.6,34.715 C152.666667,34.715 153.2,34.98 153.866667,35.245 C153.6,36.835 152.266667,37.895 150.933333,37.895 Z M164.933333,29.15 L162.133333,36.305 L162,36.305 L159.066667,29.15 L156.4,29.15 L160.8,39.22 L158.266667,44.785 L160.8,44.785 L167.6,29.15 L164.933333,29.15 Z M142.533333,39.75 L145.066667,39.75 L145.066667,23.1875 L142.533333,23.1875 L142.533333,39.75 Z" id="Shape" fill="#FFFFFF"></path>
                    <g id="Group" transform="translate(13.333333, 9.275000)">
                        <path d="M0.533333333,0.6625 C0.133333333,1.06 0,1.7225 0,2.5175 L0,31.8 C0,32.595 0.266666667,33.2575 0.666666667,33.655 L0.8,33.7875 L17.3333333,17.3575 L17.3333333,17.0925 L0.533333333,0.6625 Z" id="Shape" fill="url(#linearGradient-1)"></path>
                        <path d="M22.6666667,22.9225 L17.2,17.49 L17.2,17.0925 L22.6666667,11.66 L22.8,11.7925 L29.3333333,15.5025 C31.2,16.5625 31.2,18.285 29.3333333,19.345 L22.6666667,22.9225 Z" id="Shape" fill="url(#linearGradient-2)"></path>
                        <path d="M22.8,22.79 L17.2,17.225 L0.533333333,33.7875 C1.2,34.45 2.13333333,34.45 3.33333333,33.92 L22.8,22.79" id="Shape" fill="url(#linearGradient-3)"></path>
                        <path d="M22.8,11.66 L3.33333333,0.6625 C2.13333333,-2.77555756e-17 1.2,0.1325 0.533333333,0.795 L17.2,17.225 L22.8,11.66 Z" id="Shape" fill="url(#linearGradient-4)"></path>
                        <path d="M22.6666667,22.6575 L3.33333333,33.5225 C2.26666667,34.185 1.33333333,34.0525 0.666666667,33.5225 L0.533333333,33.655 L0.666666667,33.7875 C1.33333333,34.3175 2.26666667,34.45 3.33333333,33.7875 L22.6666667,22.6575 Z" id="Shape" fill="#000000" opacity="0.2"></path>
                        <path d="M0.533333333,33.5225 C0.133333333,33.125 0,32.4625 0,31.6675 L0,31.8 C0,32.595 0.266666667,33.2575 0.666666667,33.655 L0.666666667,33.5225 L0.533333333,33.5225 Z M29.3333333,18.9475 L22.6666667,22.6575 L22.8,22.79 L29.3333333,19.08 C30.2666667,18.55 30.6666667,17.8875 30.6666667,17.225 C30.6666667,17.8875 30.1333333,18.4175 29.3333333,18.9475 Z" id="Shape" fill="#000000" opacity="0.12"></path>
                        <path d="M3.33333333,0.795 L29.3333333,15.5025 C30.1333333,16.0325 30.6666667,16.5625 30.6666667,17.225 C30.6666667,16.5625 30.2666667,15.9 29.3333333,15.37 L3.33333333,0.6625 C1.46666667,-0.3975 0,0.3975 0,2.5175 L0,2.65 C0,0.6625 1.46666667,-0.265 3.33333333,0.795 Z" id="Shape" fill="#FFFFFF" opacity="0.25"></path>
                    </g>
                </g>
            </g>
        </g>
    </g>
</svg>